<svg xmlns="http://www.w3.org/2000/svg" viewBox="0 0 486.406 486.406">
  <g>
    <path d="M481.198 224.116L253.202 26.52c-5.715-4.955-14.197-4.955-19.912 0l-81.288 70.405V68.41c0-16.78-13.62-30.4-30.4-30.4s-30.4 13.62-30.4 30.4v81.197l-85.97 74.51c-6.322 5.5-7.02 15.108-1.52 21.46 5.534 6.324 15.11 6.993 21.463 1.52L243.2 58.136l217.996 188.963c2.918 2.493 6.414 3.71 9.97 3.71 4.287 0 8.452-1.795 11.462-5.23 5.592-6.353 4.863-15.9-1.43-21.462z"/>
    <path d="M262.443 136.14c-5.563-4.59-12.403-6.93-19.243-6.93-6.84 0-13.68 2.31-19.273 6.93L71.93 260.747c-7.053 5.776-11.126 14.38-11.126 23.53v148.926c0 16.78 13.62 30.4 30.4 30.4H182.4V311.605H304v151.997h91.197c16.75 0 30.4-13.62 30.4-30.4V284.278c0-9.18-4.105-17.753-11.158-23.5L262.442 136.14z"/>
  </g>
</svg>
