<svg width="790" height="787" viewBox="0 0 790 787" fill="none" xmlns="http://www.w3.org/2000/svg">
<path d="M168.441 72.4287C213.499 40.726 262.641 19.0513 316.299 8.4606C336.549 4.46397 357.307 2.28848 377.935 1.19095C397.309 0.160143 416.949 0.326977 436.241 2.27008C496.285 8.31806 552.276 27.1853 603.184 59.7799C695.637 118.974 754.702 202.223 779.544 309.156C784.28 329.542 785.675 350.742 788.036 371.631C790.496 393.402 789.248 415.256 786.844 436.922C779.8 500.42 758.743 559.033 722.68 611.825C665.467 695.58 587.627 750.449 489.262 775.64C464.994 781.855 440.18 784.92 415.086 786.276C392.538 787.494 370.117 786.593 347.838 783.836C282.202 775.715 221.981 752.871 168.102 714.436C89.0097 658.016 36.7423 582.757 12.3682 488.547C6.38461 465.42 3.2068 441.791 1.70795 417.875C0.33789 396.013 0.760489 374.223 3.16157 352.566C10.7175 284.413 34.201 222.171 74.1024 166.271C100.163 129.761 131.523 98.5508 168.441 72.4287ZM220.908 303.324C212.363 322.139 203.8 340.945 195.279 359.771C170.606 414.283 145.911 468.785 121.377 523.36C119.73 527.024 118.349 531.323 118.591 535.219C119.201 545.022 126.657 550.93 137.503 550.995C153.332 551.091 169.161 550.969 184.989 551.039C194.614 551.081 201.34 547.152 205.167 537.987C209.432 527.771 214.527 517.898 218.706 507.65C220.404 503.486 222.654 502.537 226.848 502.56C259.337 502.735 291.828 502.734 324.318 502.621C339.985 502.566 347.42 490.836 341.028 476.504C334.43 461.709 327.655 446.993 321.067 432.194C317.658 424.537 311.918 420.767 303.553 420.797C291.223 420.841 278.894 420.807 266.564 420.806C264.001 420.806 261.439 420.806 258.053 420.806C268.415 397.906 278.359 375.928 288.616 353.259C289.653 355.353 290.345 356.647 290.948 357.982C317.96 417.789 345.05 477.561 371.88 537.449C376.179 547.045 382.979 551.206 393.236 551.072C408.562 550.871 423.923 550.422 439.212 551.203C452.195 551.866 463.601 539.552 456.691 524.401C414.854 432.663 373.445 340.729 332.01 248.808C327.947 239.795 321.309 235.874 311.681 235.949C296.686 236.067 281.687 236.17 266.696 235.916C255.99 235.734 249.052 240.009 244.773 250.166C237.329 267.83 229.026 285.131 220.908 303.324ZM539.037 376.562C533.914 390.451 528.792 404.339 523.243 419.383C521.236 414.47 519.621 410.582 518.055 406.674C497.046 354.254 476.005 301.847 455.081 249.393C451.87 241.344 446.436 236.229 437.711 236.077C420.388 235.777 403.048 235.666 385.732 236.133C373.177 236.472 366.007 248.295 370.603 260.389C375.239 272.587 380.219 284.654 385.076 296.768C417.154 376.785 449.274 456.785 481.275 536.833C484.866 545.814 490.853 550.966 500.692 551.003C516.521 551.062 532.35 551.129 548.177 550.969C555.146 550.898 561.216 548.426 564.905 542.103C566.469 539.422 567.487 536.401 568.579 533.469C602.366 442.809 636.145 352.146 669.885 261.469C675.175 247.253 667.257 236.021 652.033 235.988C637.205 235.955 622.376 235.978 607.547 235.982C595.465 235.984 590.103 239.747 585.909 251.006C570.407 292.625 554.882 334.236 539.037 376.562Z" fill="black"/>
<path d="M220.996 302.954C229.026 285.131 237.329 267.83 244.773 250.166C249.052 240.009 255.99 235.734 266.696 235.916C281.687 236.17 296.686 236.067 311.681 235.949C321.309 235.874 327.947 239.795 332.01 248.808C373.445 340.729 414.854 432.663 456.691 524.401C463.601 539.552 452.195 551.866 439.212 551.203C423.923 550.422 408.562 550.871 393.236 551.072C382.979 551.206 376.179 547.045 371.88 537.449C345.05 477.561 317.96 417.789 290.948 357.982C290.345 356.647 289.653 355.353 288.616 353.259C278.359 375.928 268.415 397.906 258.053 420.806C261.439 420.806 264.001 420.806 266.564 420.806C278.894 420.807 291.223 420.841 303.553 420.797C311.918 420.767 317.658 424.537 321.067 432.194C327.655 446.993 334.43 461.709 341.028 476.504C347.42 490.836 339.985 502.566 324.318 502.621C291.828 502.734 259.337 502.735 226.848 502.56C222.654 502.537 220.404 503.486 218.706 507.65C214.527 517.898 209.432 527.771 205.167 537.987C201.34 547.152 194.614 551.081 184.989 551.039C169.161 550.969 153.332 551.091 137.503 550.995C126.657 550.93 119.201 545.022 118.591 535.219C118.349 531.323 119.73 527.024 121.377 523.36C145.911 468.785 170.606 414.283 195.279 359.771C203.8 340.945 212.363 322.139 220.996 302.954ZM343 459.471C354.451 484.951 365.989 510.392 377.293 535.937C380.117 542.317 384.25 545.473 391.455 545.348C407.616 545.066 423.784 545.313 439.949 545.241C451.193 545.19 456.346 537.32 451.752 527.161C409.892 434.594 367.98 342.051 326.156 249.468C323.898 244.47 320.328 241.831 315 241.805C297.503 241.719 280.005 241.731 262.507 241.796C256.936 241.816 253.249 244.569 251.044 249.791C247.681 257.754 243.976 265.572 240.414 273.45C202.257 357.838 164.092 442.222 125.95 526.616C120.993 537.583 125.869 545.208 137.854 545.246C153.852 545.298 169.854 545.082 185.848 545.342C192.75 545.454 197.107 542.742 199.831 536.448C204.982 524.547 210.581 512.838 215.646 500.902C216.989 497.736 218.592 496.899 221.872 496.911C256.035 497.037 290.198 497.007 324.361 496.979C335.89 496.969 340.697 489.592 336.007 479.055C329.855 465.232 323.203 451.617 317.507 437.612C314.044 429.095 308.747 425.722 299.582 426.018C283.141 426.55 266.671 426.168 249.48 426.168C262.612 397.192 275.479 368.802 288.685 339.666C306.88 379.788 324.791 419.282 343 459.471Z" fill="#F5F5F5"/>
<path d="M539.201 376.206C554.882 334.236 570.407 292.625 585.909 251.006C590.103 239.747 595.465 235.984 607.547 235.982C622.376 235.978 637.205 235.955 652.033 235.988C667.257 236.021 675.175 247.253 669.885 261.469C636.145 352.146 602.366 442.809 568.579 533.469C567.487 536.401 566.469 539.422 564.905 542.103C561.216 548.426 555.146 550.898 548.177 550.969C532.35 551.129 516.521 551.062 500.692 551.003C490.853 550.966 484.866 545.814 481.275 536.833C449.274 456.785 417.154 376.785 385.076 296.768C380.219 284.654 375.239 272.587 370.603 260.389C366.007 248.295 373.177 236.472 385.732 236.133C403.048 235.666 420.388 235.777 437.711 236.077C446.436 236.229 451.87 241.344 455.081 249.393C476.005 301.847 497.046 354.254 518.055 406.674C519.621 410.582 521.236 414.47 523.243 419.383C528.792 404.339 533.914 390.451 539.201 376.206ZM635.408 337.914C645.169 311.74 654.961 285.577 664.675 259.386C668.54 248.965 663.594 241.808 652.506 241.757C637.176 241.686 621.844 241.724 606.513 241.744C596.791 241.757 594.7 243.194 591.353 252.184C578.238 287.403 565.144 322.631 552.037 357.853C542.597 383.219 533.149 408.583 523.432 434.679C522.397 432.201 521.616 430.398 520.886 428.575C497.263 369.622 473.648 310.665 450.022 251.714C446.644 243.285 444.458 241.768 435.491 241.748C419.994 241.713 404.496 241.712 388.998 241.747C376.987 241.774 371.987 249.057 376.433 260.149C413.235 351.979 450.061 443.799 486.892 535.617C490.05 543.49 492.641 545.233 501.206 545.251C516.704 545.284 532.202 545.289 547.699 545.25C556.248 545.228 558.968 543.379 561.904 535.492C586.324 469.88 610.718 404.258 635.408 337.914Z" fill="#F5F5F5"/>
<path d="M342.851 459.124C324.791 419.282 306.88 379.788 288.685 339.666C275.479 368.802 262.612 397.192 249.48 426.168C266.671 426.168 283.141 426.55 299.582 426.018C308.747 425.722 314.044 429.095 317.507 437.612C323.203 451.617 329.855 465.232 336.007 479.055C340.697 489.592 335.89 496.969 324.361 496.979C290.198 497.007 256.035 497.037 221.872 496.911C218.592 496.899 216.989 497.736 215.646 500.902C210.581 512.838 204.982 524.547 199.831 536.448C197.107 542.742 192.75 545.454 185.848 545.342C169.854 545.082 153.852 545.298 137.854 545.246C125.869 545.208 120.993 537.583 125.95 526.616C164.092 442.222 202.257 357.838 240.414 273.45C243.976 265.572 247.681 257.754 251.044 249.791C253.249 244.569 256.936 241.816 262.507 241.796C280.005 241.731 297.503 241.719 315 241.805C320.328 241.831 323.898 244.47 326.156 249.468C367.98 342.051 409.892 434.594 451.752 527.161C456.346 537.32 451.193 545.19 439.949 545.241C423.784 545.313 407.616 545.066 391.455 545.348C384.25 545.473 380.117 542.317 377.293 535.937C365.989 510.392 354.451 484.951 342.851 459.124ZM292.84 320.66C301.551 339.896 310.286 359.121 318.966 378.37C341.662 428.701 364.366 479.029 386.941 529.414C388.441 532.763 390.161 534.051 393.925 533.929C403.579 533.617 413.25 533.825 422.914 533.825C429.116 533.825 435.319 533.825 441.936 533.825C440.909 531.492 440.195 529.83 439.45 528.181C420.593 486.411 401.736 444.64 382.87 402.873C360.882 354.193 338.878 305.521 316.918 256.829C315.909 254.592 315.034 253.048 311.975 253.084C295.486 253.276 278.993 253.175 262.286 253.175C219.989 346.595 177.71 439.977 135.22 533.824C152.539 533.824 169.166 533.906 185.789 533.673C187.155 533.654 189.066 531.767 189.751 530.296C195.978 516.916 202.126 503.496 207.964 489.944C209.405 486.598 211.22 485.738 214.658 485.75C249.981 485.872 285.304 485.825 320.628 485.825C322.37 485.825 324.112 485.825 326.473 485.825C319.636 470.59 313.026 456.134 306.701 441.554C305.273 438.263 303.392 437.402 299.963 437.429C278.804 437.591 257.642 437.516 236.481 437.499C235.076 437.497 233.671 437.327 231.868 437.209C250.856 395.319 269.622 353.917 288.685 311.859C290.126 314.936 291.311 317.466 292.84 320.66Z" fill="#050505"/>
<path d="M635.264 338.277C610.718 404.258 586.324 469.88 561.904 535.492C558.968 543.379 556.248 545.228 547.699 545.25C532.202 545.289 516.704 545.284 501.206 545.251C492.641 545.233 490.05 543.49 486.892 535.617C450.061 443.799 413.235 351.979 376.433 260.149C371.987 249.057 376.987 241.774 388.998 241.747C404.496 241.712 419.994 241.713 435.491 241.748C444.458 241.768 446.644 243.285 450.022 251.714C473.648 310.665 497.263 369.622 520.886 428.575C521.616 430.398 522.397 432.201 523.432 434.679C533.149 408.583 542.597 383.219 552.037 357.853C565.144 322.631 578.238 287.403 591.353 252.184C594.7 243.194 596.791 241.757 606.513 241.744C621.844 241.724 637.176 241.686 652.506 241.757C663.594 241.808 668.54 248.965 664.675 259.386C654.961 285.577 645.169 311.74 635.264 338.277ZM552.766 527.2C552.896 526.717 552.986 526.22 553.16 525.753C584.917 440.541 616.68 355.331 648.439 270.119C650.504 264.578 652.53 259.023 654.656 253.255C637.233 253.255 620.41 253.255 603.249 253.255C576.863 324.088 550.461 394.964 523.729 466.728C513.185 440.429 503.082 415.269 493.009 390.097C475.324 345.903 457.62 301.717 440.063 257.472C438.754 254.172 437.193 252.835 433.591 253.092C428.783 253.435 423.932 253.177 419.099 253.177C408.222 253.177 397.344 253.177 385.962 253.177C423.645 347.13 461.064 440.425 498.525 533.823C513.921 533.823 529.083 533.573 544.229 533.967C549.167 534.095 551.603 532.534 552.766 527.2Z" fill="#050505"/>
<path d="M292.668 320.328C291.311 317.466 290.126 314.936 288.685 311.859C269.622 353.917 250.856 395.319 231.868 437.209C233.671 437.327 235.076 437.497 236.481 437.499C257.642 437.516 278.804 437.591 299.963 437.429C303.392 437.402 305.273 438.263 306.701 441.554C313.026 456.134 319.636 470.59 326.473 485.825C324.112 485.825 322.37 485.825 320.628 485.825C285.304 485.825 249.981 485.872 214.658 485.75C211.22 485.738 209.405 486.598 207.964 489.944C202.126 503.496 195.978 516.916 189.751 530.296C189.066 531.767 187.155 533.654 185.789 533.673C169.166 533.906 152.539 533.824 135.22 533.824C177.71 439.977 219.989 346.595 262.286 253.175C278.993 253.175 295.486 253.276 311.975 253.084C315.034 253.048 315.909 254.592 316.918 256.829C338.878 305.521 360.882 354.193 382.87 402.873C401.736 444.64 420.593 486.411 439.45 528.181C440.195 529.83 440.909 531.492 441.936 533.825C435.319 533.825 429.116 533.825 422.914 533.825C413.25 533.825 403.579 533.617 393.925 533.929C390.161 534.051 388.441 532.763 386.941 529.414C364.366 479.029 341.662 428.701 318.966 378.37C310.286 359.121 301.551 339.896 292.668 320.328Z" fill="#FDFDFD"/>
<path d="M552.569 527.544C551.603 532.534 549.167 534.095 544.229 533.967C529.083 533.573 513.921 533.823 498.525 533.823C461.064 440.425 423.645 347.13 385.962 253.177C397.344 253.177 408.222 253.177 419.099 253.177C423.932 253.177 428.783 253.435 433.591 253.092C437.193 252.835 438.754 254.172 440.063 257.472C457.62 301.717 475.324 345.903 493.009 390.097C503.082 415.269 513.185 440.429 523.729 466.728C550.461 394.964 576.863 324.088 603.249 253.255C620.41 253.255 637.233 253.255 654.656 253.255C652.53 259.023 650.504 264.578 648.439 270.119C616.68 355.331 584.917 440.541 553.16 525.753C552.986 526.22 552.896 526.717 552.569 527.544Z" fill="#FDFDFD"/>
</svg>
