<svg width="700" height="700" viewBox="0 0 700 700" fill="none" xmlns="http://www.w3.org/2000/svg">
<circle cx="350" cy="350" r="350" fill="#050505"/>
<mask id="path-2-outside-1_14_40" maskUnits="userSpaceOnUse" x="97" y="170" width="506" height="360" fill="black">
<rect fill="white" x="97" y="170" width="506" height="360"/>
<path fill-rule="evenodd" clip-rule="evenodd" d="M105.394 467.723L183.842 240.179C197.289 201.176 234.001 175 275.257 175C315.419 175 351.4 199.826 365.656 237.372L384.535 287.093L399.036 336.255C407.436 364.733 447.673 365.01 456.465 336.652L495.149 211.88C501.948 189.949 522.234 175 545.195 175C581.184 175 606.46 210.45 594.729 244.474L521.254 457.594C507.347 497.93 469.381 525 426.715 525H399.069C371.308 525 344.796 513.46 325.879 493.142L316.421 482.983C290.307 454.935 248.224 447.18 223.372 476.353C221.045 479.086 218.712 481.977 216.396 485.033C199.291 507.595 174.545 525 146.232 525C116.561 525 95.7227 495.774 105.394 467.723ZM214.289 329.734C214.289 300.322 240.954 276.479 273.846 276.479C306.738 276.479 333.403 300.322 333.403 329.734V340.967C333.403 352.818 326.339 363.529 315.445 368.195L314.833 368.369C287.987 375.99 259.542 375.93 232.728 368.195C221.561 363.537 214.289 352.623 214.289 340.524V329.734Z"/>
</mask>
<path fill-rule="evenodd" clip-rule="evenodd" d="M105.394 467.723L183.842 240.179C197.289 201.176 234.001 175 275.257 175C315.419 175 351.4 199.826 365.656 237.372L384.535 287.093L399.036 336.255C407.436 364.733 447.673 365.01 456.465 336.652L495.149 211.88C501.948 189.949 522.234 175 545.195 175C581.184 175 606.46 210.45 594.729 244.474L521.254 457.594C507.347 497.93 469.381 525 426.715 525H399.069C371.308 525 344.796 513.46 325.879 493.142L316.421 482.983C290.307 454.935 248.224 447.18 223.372 476.353C221.045 479.086 218.712 481.977 216.396 485.033C199.291 507.595 174.545 525 146.232 525C116.561 525 95.7227 495.774 105.394 467.723ZM214.289 329.734C214.289 300.322 240.954 276.479 273.846 276.479C306.738 276.479 333.403 300.322 333.403 329.734V340.967C333.403 352.818 326.339 363.529 315.445 368.195L314.833 368.369C287.987 375.99 259.542 375.93 232.728 368.195C221.561 363.537 214.289 352.623 214.289 340.524V329.734Z" fill="white"/>
<path d="M183.842 240.179L188.569 241.809L183.842 240.179ZM105.394 467.723L100.667 466.093L100.667 466.093L105.394 467.723ZM365.656 237.372L360.982 239.147L360.982 239.147L365.656 237.372ZM384.535 287.093L389.33 285.679L389.277 285.496L389.209 285.318L384.535 287.093ZM399.036 336.255L403.832 334.841L403.832 334.841L399.036 336.255ZM456.465 336.652L451.689 335.171L451.689 335.171L456.465 336.652ZM495.149 211.88L499.924 213.361L499.924 213.361L495.149 211.88ZM594.729 244.474L599.456 246.104L599.456 246.104L594.729 244.474ZM521.254 457.594L516.527 455.964L516.527 455.964L521.254 457.594ZM325.879 493.142L322.22 496.549L322.22 496.549L325.879 493.142ZM316.421 482.983L320.08 479.576L320.08 479.576L316.421 482.983ZM223.372 476.353L219.566 473.111L219.566 473.111L223.372 476.353ZM216.396 485.033L220.38 488.054L220.38 488.054L216.396 485.033ZM315.445 368.195L316.811 373.005L317.119 372.918L317.414 372.791L315.445 368.195ZM314.833 368.369L313.468 363.559L313.468 363.559L314.833 368.369ZM232.728 368.195L230.803 372.81L231.067 372.92L231.342 372.999L232.728 368.195ZM179.115 238.549L100.667 466.093L110.121 469.352L188.569 241.809L179.115 238.549ZM275.257 170C231.868 170 193.257 197.529 179.115 238.549L188.569 241.809C201.321 204.822 236.135 180 275.257 180V170ZM370.331 235.597C355.338 196.109 317.496 170 275.257 170V180C313.343 180 347.463 203.542 360.982 239.147L370.331 235.597ZM389.209 285.318L370.331 235.597L360.982 239.147L379.86 288.868L389.209 285.318ZM403.832 334.841L389.33 285.679L379.739 288.508L394.24 337.67L403.832 334.841ZM451.689 335.171C444.362 358.803 410.832 358.572 403.832 334.841L394.24 337.67C404.04 370.894 450.983 371.218 461.24 338.132L451.689 335.171ZM490.373 210.399L451.689 335.171L461.24 338.132L499.924 213.361L490.373 210.399ZM545.195 170C520.043 170 497.821 186.376 490.373 210.399L499.924 213.361C506.075 193.523 524.425 180 545.195 180V170ZM599.456 246.104C612.306 208.832 584.619 170 545.195 170V180C577.75 180 600.613 212.067 590.003 242.844L599.456 246.104ZM525.981 459.223L599.456 246.104L590.003 242.844L516.527 455.964L525.981 459.223ZM426.715 530C471.514 530 511.379 501.576 525.981 459.223L516.527 455.964C503.316 494.283 467.247 520 426.715 520V530ZM399.069 530H426.715V520H399.069V530ZM322.22 496.549C342.083 517.883 369.92 530 399.069 530V520C372.696 520 347.51 509.037 329.539 489.735L322.22 496.549ZM312.762 486.39L322.22 496.549L329.539 489.735L320.08 479.576L312.762 486.39ZM227.179 479.596C238.431 466.387 253.48 461.541 268.894 463.182C284.443 464.837 300.42 473.135 312.762 486.39L320.08 479.576C306.308 464.783 288.187 455.179 269.952 453.238C251.583 451.283 233.165 457.147 219.566 473.111L227.179 479.596ZM220.38 488.054C222.638 485.075 224.911 482.258 227.179 479.596L219.566 473.111C217.178 475.914 214.787 478.879 212.411 482.013L220.38 488.054ZM146.232 530C176.673 530 202.733 511.332 220.38 488.054L212.411 482.013C195.85 503.858 172.417 520 146.232 520V530ZM100.667 466.093C89.8764 497.391 113.127 530 146.232 530V520C119.995 520 101.569 494.157 110.121 469.352L100.667 466.093ZM273.846 271.479C238.733 271.479 209.289 297.049 209.289 329.734H219.289C219.289 303.595 243.175 281.479 273.846 281.479V271.479ZM338.403 329.734C338.403 297.049 308.959 271.479 273.846 271.479V281.479C304.518 281.479 328.403 303.595 328.403 329.734H338.403ZM338.403 340.967V329.734H328.403V340.967H338.403ZM317.414 372.791C330.147 367.337 338.403 354.819 338.403 340.967H328.403C328.403 350.818 322.531 359.72 313.477 363.599L317.414 372.791ZM316.199 373.179L316.811 373.005L314.08 363.385L313.468 363.559L316.199 373.179ZM231.342 372.999C259.054 380.993 288.453 381.055 316.199 373.179L313.468 363.559C287.521 370.924 260.029 370.866 234.113 363.391L231.342 372.999ZM209.289 340.524C209.289 354.641 217.774 367.374 230.803 372.81L234.653 363.581C225.349 359.699 219.289 350.606 219.289 340.524H209.289ZM209.289 329.734V340.524H219.289V329.734H209.289Z" fill="white" fill-opacity="0.5" mask="url(#path-2-outside-1_14_40)"/>
</svg>
