<svg width="700" height="700" viewBox="0 0 700 700" fill="none" xmlns="http://www.w3.org/2000/svg">
<rect x="10" y="10" width="680" height="680" rx="170" fill="#FDBA74" stroke="#232946" stroke-width="20"/>
<mask id="path-2-outside-1_22_56" maskUnits="userSpaceOnUse" x="102.802" y="170" width="499" height="360" fill="black">
<rect fill="white" x="102.802" y="170" width="499" height="360"/>
<path fill-rule="evenodd" clip-rule="evenodd" d="M111.996 448.573L183.074 242.406C196.981 202.07 234.947 175 277.613 175H279.584C317.767 175 352.617 196.743 369.402 231.038L395.796 284.964C406.632 307.102 438.062 307.452 449.388 285.559L490.996 205.129C500.571 186.622 519.667 175 540.504 175C578.791 175 605.68 212.712 593.201 248.908L521.254 457.594C507.347 497.93 469.381 525 426.715 525H385.393C366.04 525 347.233 518.58 331.92 506.745C303.601 484.858 264.811 482.435 233.994 500.636C227.904 504.232 221.62 507.944 215.355 511.645C200.554 520.387 183.679 525 166.489 525C126.897 525 99.0916 486.002 111.996 448.573ZM227 356.743C227 332.032 249.386 312 277 312C304.614 312 327 332.032 327 356.743V366.192C327 376.143 321.07 385.136 311.924 389.057L311.41 389.203C288.873 395.606 264.99 395.555 242.48 389.057C233.105 385.143 227 375.979 227 365.82V356.743Z"/>
</mask>
<path fill-rule="evenodd" clip-rule="evenodd" d="M111.996 448.573L183.074 242.406C196.981 202.07 234.947 175 277.613 175H279.584C317.767 175 352.617 196.743 369.402 231.038L395.796 284.964C406.632 307.102 438.062 307.452 449.388 285.559L490.996 205.129C500.571 186.622 519.667 175 540.504 175C578.791 175 605.68 212.712 593.201 248.908L521.254 457.594C507.347 497.93 469.381 525 426.715 525H385.393C366.04 525 347.233 518.58 331.92 506.745C303.601 484.858 264.811 482.435 233.994 500.636C227.904 504.232 221.62 507.944 215.355 511.645C200.554 520.387 183.679 525 166.489 525C126.897 525 99.0916 486.002 111.996 448.573ZM227 356.743C227 332.032 249.386 312 277 312C304.614 312 327 332.032 327 356.743V366.192C327 376.143 321.07 385.136 311.924 389.057L311.41 389.203C288.873 395.606 264.99 395.555 242.48 389.057C233.105 385.143 227 375.979 227 365.82V356.743Z" fill="#232946"/>
<path d="M183.074 242.406L178.347 240.777L178.347 240.777L183.074 242.406ZM111.996 448.573L107.269 446.943L111.996 448.573ZM369.402 231.038L373.893 228.84L373.893 228.84L369.402 231.038ZM395.796 284.964L400.287 282.765L400.287 282.765L395.796 284.964ZM449.388 285.559L444.947 283.262L444.947 283.262L449.388 285.559ZM490.996 205.129L486.555 202.831L486.555 202.831L490.996 205.129ZM593.201 248.908L588.474 247.278L588.474 247.278L593.201 248.908ZM521.254 457.594L516.527 455.964L516.527 455.964L521.254 457.594ZM331.92 506.745L328.862 510.701L328.862 510.701L331.92 506.745ZM233.994 500.636L236.537 504.941L236.537 504.941L233.994 500.636ZM215.355 511.645L212.812 507.34L212.812 507.34L215.355 511.645ZM311.924 389.057L313.291 393.867L313.599 393.779L313.894 393.653L311.924 389.057ZM311.41 389.203L312.777 394.013L312.777 394.013L311.41 389.203ZM242.48 389.057L240.553 393.671L240.818 393.782L241.093 393.861L242.48 389.057ZM178.347 240.777L107.269 446.943L116.723 450.202L187.801 244.036L178.347 240.777ZM277.613 170C232.814 170 192.949 198.424 178.347 240.777L187.801 244.036C201.012 205.717 237.081 180 277.613 180V170ZM279.584 170H277.613V180H279.584V170ZM373.893 228.84C356.268 192.83 319.676 170 279.584 170V180C315.857 180 348.965 200.656 364.911 233.236L373.893 228.84ZM400.287 282.765L373.893 228.84L364.911 233.236L391.306 287.162L400.287 282.765ZM444.947 283.262C435.509 301.506 409.317 301.214 400.287 282.765L391.306 287.162C403.947 312.99 440.615 313.398 453.828 287.857L444.947 283.262ZM486.555 202.831L444.947 283.262L453.828 287.857L495.437 207.426L486.555 202.831ZM540.504 170C517.798 170 496.988 182.664 486.555 202.831L495.437 207.426C504.153 190.579 521.537 180 540.504 180V170ZM597.928 250.538C611.526 211.095 582.225 170 540.504 170V180C575.357 180 599.833 214.329 588.474 247.278L597.928 250.538ZM525.981 459.223L597.928 250.538L588.474 247.278L516.527 455.964L525.981 459.223ZM426.715 530C471.514 530 511.379 501.576 525.981 459.223L516.527 455.964C503.316 494.283 467.247 520 426.715 520V530ZM385.393 530H426.715V520H385.393V530ZM328.862 510.701C345.051 523.212 364.933 530 385.393 530V520C367.146 520 349.415 513.947 334.978 502.789L328.862 510.701ZM236.537 504.941C265.59 487.781 302.163 490.066 328.862 510.701L334.978 502.789C305.04 479.651 264.031 477.088 231.451 496.33L236.537 504.941ZM217.898 515.95C224.163 512.249 230.447 508.537 236.537 504.941L231.451 496.33C225.361 499.927 219.078 503.639 212.812 507.34L217.898 515.95ZM166.489 530C184.574 530 202.327 525.147 217.898 515.95L212.812 507.34C198.781 515.628 182.784 520 166.489 520V530ZM107.269 446.943C93.2452 487.619 123.463 530 166.489 530V520C130.331 520 104.938 484.385 116.723 450.202L107.269 446.943ZM277 307C247.161 307 222 328.763 222 356.743H232C232 335.301 251.61 317 277 317V307ZM332 356.743C332 328.763 306.839 307 277 307V317C302.39 317 322 335.301 322 356.743H332ZM332 366.192V356.743H322V366.192H332ZM313.894 393.653C324.878 388.944 332 378.143 332 366.192H322C322 374.143 317.262 381.329 309.954 384.462L313.894 393.653ZM312.777 394.013L313.291 393.867L310.558 384.248L310.044 384.393L312.777 394.013ZM241.093 393.861C264.503 400.618 289.339 400.671 312.777 394.013L310.044 384.393C288.406 390.54 265.478 390.492 243.866 384.253L241.093 393.861ZM222 365.82C222 377.996 229.317 388.98 240.553 393.671L244.406 384.443C236.893 381.306 232 373.962 232 365.82H222ZM222 356.743V365.82H232V356.743H222Z" fill="#232946" fill-opacity="0.5" mask="url(#path-2-outside-1_22_56)"/>
</svg>
