<svg width="496" height="350" viewBox="0 0 496 350" fill="none" xmlns="http://www.w3.org/2000/svg">
<path fill-rule="evenodd" clip-rule="evenodd" d="M3.37058 292.723L81.819 65.1791C95.2659 26.1758 131.978 0 173.234 0C213.396 0 249.377 24.8257 263.633 62.3723L282.512 112.093L297.013 161.255C305.413 189.733 345.649 190.01 354.442 161.652L393.125 36.88C399.925 14.9491 420.211 0 443.171 0C479.161 0 504.437 35.4496 492.706 69.4739L419.231 282.594C405.324 322.93 367.358 350 324.692 350H297.045C269.285 350 242.773 338.46 223.856 318.142L214.398 307.983C188.284 279.935 146.2 272.18 121.349 301.353C119.021 304.086 116.689 306.977 114.373 310.033C97.2681 332.595 72.5218 350 44.2093 350C14.5379 350 -6.30039 320.774 3.37058 292.723ZM112.266 154.734C112.266 125.322 138.931 101.479 171.823 101.479C204.715 101.479 231.38 125.322 231.38 154.734V165.967C231.38 177.818 224.316 188.529 213.422 193.195L212.81 193.369C185.964 200.99 157.518 200.93 130.705 193.195C119.538 188.537 112.266 177.623 112.266 165.524V154.734Z" fill="white"/>
</svg>
