<svg width="535" height="431" viewBox="0 0 535 431" fill="none" xmlns="http://www.w3.org/2000/svg">
  <path fill-rule="evenodd" clip-rule="evenodd"
    d="M28.9959 293.573L100.074 87.4064C113.981 47.0703 151.947 20 194.613 20H196.584C234.767 20 269.617 41.743 286.402 76.038L312.796 129.964C323.632 152.102 355.062 152.452 366.388 130.559L407.996 50.1286C417.571 31.6217 436.667 20 457.504 20C495.791 20 522.68 57.7122 510.201 93.9081L438.254 302.594C424.347 342.93 386.381 370 343.715 370H302.393C283.04 370 264.233 363.58 248.92 351.745C220.601 329.858 181.811 327.435 150.994 345.636C144.904 349.232 138.62 352.944 132.355 356.645C117.554 365.387 100.679 370 83.4887 370C43.897 370 16.0916 331.002 28.9959 293.573ZM144 201.743C144 177.032 166.386 157 194 157C221.614 157 244 177.032 244 201.743V211.192C244 221.143 238.07 230.136 228.924 234.057L228.41 234.203C205.873 240.606 181.99 240.555 159.48 234.057C150.105 230.143 144 220.979 144 210.82V201.743Z"
    fill="currentColor" />
</svg>