<?xml version="1.0" standalone="no"?>
<!DOCTYPE svg PUBLIC "-//W3C//DTD SVG 20010904//EN"
 "http://www.w3.org/TR/2001/REC-SVG-20010904/DTD/svg10.dtd">
<svg version="1.0" xmlns="http://www.w3.org/2000/svg"
 width="790.000000pt" height="790.000000pt" viewBox="0 0 790.000000 790.000000"
 preserveAspectRatio="xMidYMid meet">
<metadata>
Created by potrace 1.14, written by Peter Selinger 2001-2017
</metadata>
<g transform="translate(0.000000,790.000000) scale(0.100000,-0.100000)"
fill="#000000" stroke="none">
<path d="M3670 7863 c-436 -33 -858 -131 -1224 -284 -1067 -448 -1891 -1340
-2245 -2430 -185 -572 -237 -1184 -150 -1784 103 -715 424 -1419 896 -1965
131 -152 377 -389 533 -513 607 -484 1276 -762 2055 -853 203 -24 629 -24 842
-1 484 54 916 183 1353 403 549 276 1013 667 1385 1168 419 563 655 1152 751
1868 8 62 18 223 21 358 5 229 3 263 -26 520 -35 308 -60 443 -127 673 -163
566 -424 1052 -794 1481 -117 136 -370 381 -503 487 -627 502 -1285 780 -2047
864 -123 13 -579 19 -720 8z m-477 -2354 c83 -23 88 -31 436 -804 178 -396
466 -1033 639 -1415 282 -620 316 -701 316 -746 0 -67 -35 -123 -96 -153 -42
-20 -59 -21 -329 -21 -387 1 -374 -7 -501 275 -454 1006 -742 1644 -755 1668
-8 16 -18 25 -22 21 -6 -7 -271 -585 -298 -651 -4 -10 49 -13 246 -13 274 0
294 -3 343 -56 41 -45 250 -518 256 -580 6 -71 -17 -117 -77 -152 l-46 -27
-525 -2 c-289 -1 -537 -4 -551 -7 -22 -4 -36 -29 -115 -201 -96 -213 -119
-245 -195 -265 -26 -7 -141 -10 -328 -8 l-288 3 -41 27 c-57 38 -75 77 -70
147 5 60 28 113 798 1811 189 415 374 825 412 910 114 254 104 250 478 250
163 0 290 -4 313 -11z m1253 -8 c23 -10 53 -34 67 -52 14 -19 179 -419 367
-889 188 -470 345 -858 349 -862 4 -4 19 27 35 70 60 163 379 1021 407 1092
15 41 67 178 114 304 99 266 120 306 172 332 35 17 64 19 333 19 280 0 297 -1
335 -21 22 -11 50 -36 63 -54 50 -74 70 -12 -498 -1535 -285 -767 -527 -1411
-536 -1430 -21 -45 -64 -81 -112 -95 -21 -5 -151 -10 -305 -10 -219 0 -274 3
-305 15 -46 20 -79 50 -102 95 -32 63 -1123 2794 -1133 2837 -18 75 33 165
108 191 18 6 144 11 315 11 258 1 289 -1 326 -18z"/>
<path d="M2550 5433 c-41 -38 -1310 -2844 -1310 -2897 0 -25 9 -45 29 -68 l29
-33 309 -3 c288 -2 310 -1 339 17 25 15 46 54 123 227 52 115 101 215 109 222
12 9 141 12 566 12 533 0 552 1 584 20 38 23 56 62 49 106 -3 17 -31 87 -62
155 -32 68 -80 176 -107 239 -27 63 -59 126 -71 139 -44 48 -67 51 -362 51
-151 0 -275 2 -275 5 0 15 379 836 386 837 9 0 355 -757 715 -1562 141 -315
189 -412 215 -437 l34 -33 300 0 c320 0 345 3 370 49 31 59 37 45 -632 1524
-567 1253 -646 1422 -673 1438 -27 17 -56 19 -332 19 l-303 0 -30 -27z m605
-105 c9 -13 297 -644 640 -1403 l622 -1380 -249 -3 c-147 -1 -256 2 -267 7
-11 6 -126 251 -296 628 -432 961 -707 1567 -714 1575 -3 4 -133 -273 -288
-615 -239 -528 -279 -623 -265 -629 10 -4 170 -7 356 -7 314 0 341 -1 356 -18
13 -14 174 -363 206 -447 6 -15 -40 -16 -567 -16 -316 0 -579 -4 -585 -8 -7
-4 -56 -104 -109 -222 -53 -118 -106 -223 -117 -232 -18 -16 -47 -18 -270 -18
-234 0 -250 1 -246 17 3 10 288 642 633 1406 l629 1387 257 0 c256 0 258 0
274 -22z"/>
<path d="M3804 5444 c-36 -18 -54 -51 -54 -99 0 -22 195 -522 546 -1397 301
-750 559 -1390 574 -1424 44 -98 28 -94 377 -94 299 0 302 0 328 23 20 17 69
138 221 547 107 289 346 929 530 1423 200 537 334 912 334 932 0 24 -9 45 -29
67 l-29 33 -306 3 c-213 2 -312 -1 -327 -8 -11 -7 -29 -30 -39 -53 -10 -23
-170 -449 -355 -947 -185 -497 -338 -906 -339 -908 -2 -1 -171 417 -377 930
-269 672 -381 941 -401 961 l-26 27 -299 0 c-248 0 -303 -3 -329 -16z m577
-111 c8 -10 203 -490 433 -1066 230 -577 422 -1045 426 -1040 4 4 184 484 400
1066 l393 1057 254 0 c168 0 253 -3 253 -10 0 -6 -229 -627 -510 -1380 -280
-752 -510 -1373 -510 -1379 0 -6 -11 -17 -24 -26 -19 -13 -61 -15 -267 -13
l-244 3 -552 1375 c-303 756 -556 1387 -562 1403 l-10 27 253 0 c229 0 254 -2
267 -17z"/>
</g>
</svg>
