<?xml version="1.0" standalone="no"?>
<!DOCTYPE svg PUBLIC "-//W3C//DTD SVG 20010904//EN"
 "http://www.w3.org/TR/2001/REC-SVG-20010904/DTD/svg10.dtd">
<svg version="1.0" xmlns="http://www.w3.org/2000/svg"
 width="700.000000pt" height="700.000000pt" viewBox="0 0 700.000000 700.000000"
 preserveAspectRatio="xMidYMid meet">
<metadata>
Created by potrace 1.11, written by Peter Selinger 2001-2013
</metadata>
<g transform="translate(0.000000,700.000000) scale(0.100000,-0.100000)"
fill="#000000" stroke="none">
<path d="M3295 6773 c-517 -41 -929 -160 -1364 -393 -491 -264 -930 -681
-1227 -1165 -647 -1055 -642 -2395 11 -3446 190 -305 453 -602 735 -828 911
-732 2156 -921 3245 -494 523 205 1018 569 1365 1003 202 254 408 618 520 924
265 718 263 1541 -5 2269 -85 230 -253 548 -394 747 -143 202 -360 439 -546
600 -528 453 -1180 723 -1889 780 -118 9 -354 11 -451 3z m485 -83 c916 -79
1745 -547 2303 -1299 733 -988 821 -2354 220 -3437 -659 -1188 -1984 -1831
-3323 -1613 -538 87 -1039 311 -1485 663 -131 103 -409 384 -511 516 -396 512
-617 1073 -675 1714 -17 182 -6 542 21 721 108 716 424 1336 937 1835 139 136
202 190 340 293 452 335 1034 556 1593 606 137 12 446 12 580 1z"/>
<path d="M4367 5460 c-149 -24 -381 -97 -508 -160 -92 -47 -230 -144 -300
-213 -129 -125 -224 -277 -287 -457 -50 -146 -57 -202 -57 -480 0 -272 8 -338
59 -488 45 -130 149 -314 176 -309 8 1 28 -12 43 -30 97 -111 514 -313 767
-373 331 -79 458 -146 436 -233 -17 -71 -182 -193 -421 -314 -215 -108 -619
-293 -641 -293 -35 0 -109 58 -171 133 -116 140 -193 260 -563 872 -352 582
-1007 1627 -1202 1917 -61 90 -107 150 -121 154 -42 14 -141 6 -198 -15 -161
-61 -309 -197 -361 -333 -22 -59 -23 -111 -3 -169 21 -60 192 -336 997 -1619
1073 -1710 1211 -1927 1243 -1958 34 -31 38 -32 119 -32 47 0 96 4 111 10 20
8 27 7 31 -4 7 -19 34 -9 34 13 0 12 35 37 108 76 389 211 987 563 1201 708
75 51 143 90 152 89 20 -3 34 14 19 23 -6 4 33 40 87 81 171 130 303 245 343
298 21 28 49 80 61 116 21 57 24 84 24 215 0 139 -2 157 -29 239 -50 151 -138
266 -271 351 -164 105 -493 280 -750 400 -149 70 -297 167 -363 240 -133 145
-168 351 -88 518 36 75 62 105 77 90 21 -21 30 -15 27 18 -3 28 3 36 52 70 64
44 136 73 235 94 81 17 212 20 217 5 2 -6 143 -48 313 -94 171 -46 349 -100
397 -120 105 -44 144 -45 224 -7 69 33 110 78 154 173 46 100 63 179 58 283
-5 122 -33 180 -130 270 -124 114 -293 177 -605 226 -154 24 -589 35 -696 19z
m580 -796 c-3 -3 -12 -4 -19 -1 -8 3 -5 6 6 6 11 1 17 -2 13 -5z m40 -10 c-3
-3 -12 -4 -19 -1 -8 3 -5 6 6 6 11 1 17 -2 13 -5z"/>
</g>
</svg>
