<svg version="1" xmlns="http://www.w3.org/2000/svg" width="682.667" height="682.667" viewBox="0 0 512.000000 512.000000"><path d="M305.3 127.5c-32.9 6-55 20-66.3 41.6-6.4 12.4-8.3 20.8-8.3 37.9 0 21.9 4.2 35 15.7 49.7 9.6 12.3 25.3 21.8 72.6 44l6.5 3.1-3.3 1.8c-1.8 1.1-11 6.8-20.4 12.8-9.6 6.2-17.3 10.5-17.6 9.9-.4-.5-30.8-45-67.6-98.7-49.7-72.5-67.7-98.1-69.9-99.3-9.3-4.8-30.4 5.3-37.7 18-4.1 7.2-3.9 10.9.8 18.3 14.4 22.3 148.1 216.5 150.8 219.2 3.1 2.9 3.9 3.2 9.6 3.2 3.9 0 7.8-.7 10.3-1.9 6.5-2.9 62-40 74.2-49.5 14.7-11.5 31.1-28.5 34.9-36.2 6.8-13.8 1.7-24.6-17.4-36.9-9.3-5.9-36-19.2-50.4-25.1-27-10.9-37.6-20.7-38.6-35.8-.6-9.1 2-15.7 8.5-21.7 8.5-7.8 19.8-11.1 37.7-11.1 13.5.1 23.1 2 33.9 6.8 4.5 1.9 11.4 4.8 15.3 6.2 6.3 2.3 7.5 2.5 11.1 1.4 5.9-1.8 8.8-4.5 12.4-11.7 4.3-8.8 5-17.5 1.9-24-2.5-5.1-9.6-11.1-17-14.3-17.7-7.6-60.3-11.6-81.7-7.7z"/></svg>