<?xml version="1.0" standalone="no"?>
<!DOCTYPE svg PUBLIC "-//W3C//DTD SVG 20010904//EN"
 "http://www.w3.org/TR/2001/REC-SVG-20010904/DTD/svg10.dtd">
<svg version="1.0" xmlns="http://www.w3.org/2000/svg"
 width="700.000000pt" height="700.000000pt" viewBox="0 0 700.000000 700.000000"
 preserveAspectRatio="xMidYMid meet">
<metadata>
Created by potrace 1.11, written by Peter Selinger 2001-2013
</metadata>
<g transform="translate(0.000000,700.000000) scale(0.100000,-0.100000)"
fill="#000000" stroke="none">
<path d="M3295 6773 c-517 -41 -929 -160 -1364 -393 -491 -264 -930 -681
-1227 -1165 -647 -1055 -642 -2395 11 -3446 190 -305 453 -602 735 -828 911
-732 2156 -921 3245 -494 523 205 1018 569 1365 1003 202 254 408 618 520 924
265 718 263 1541 -5 2269 -85 230 -253 548 -394 747 -143 202 -360 439 -546
600 -528 453 -1180 723 -1889 780 -118 9 -354 11 -451 3z m485 -83 c916 -79
1745 -547 2303 -1299 733 -988 821 -2354 220 -3437 -659 -1188 -1984 -1831
-3323 -1613 -538 87 -1039 311 -1485 663 -131 103 -409 384 -511 516 -396 512
-617 1073 -675 1714 -17 182 -6 542 21 721 108 716 424 1336 937 1835 139 136
202 190 340 293 452 335 1034 556 1593 606 137 12 446 12 580 1z"/>
<path d="M4390 5463 c-68 -9 -211 -43 -307 -74 -424 -136 -714 -421 -827 -811
-40 -140 -49 -239 -43 -483 7 -280 31 -392 120 -570 99 -199 171 -271 387
-388 194 -105 356 -168 575 -223 362 -92 437 -151 328 -259 -51 -50 -164 -126
-287 -192 -139 -75 -674 -323 -698 -323 -33 0 -74 27 -121 80 -118 131 -212
274 -572 870 -337 559 -982 1589 -1201 1920 -129 196 -136 203 -219 208 -129
8 -277 -60 -406 -188 -126 -125 -171 -248 -131 -361 24 -70 408 -691 1389
-2249 98 -157 325 -517 503 -800 178 -283 333 -526 344 -538 40 -46 72 -55
171 -50 108 6 113 8 510 231 666 374 918 532 1222 767 332 256 403 339 439
510 19 89 14 252 -10 345 -29 107 -100 237 -169 308 -96 97 -365 255 -776 455
-276 134 -366 189 -448 275 -102 106 -140 207 -130 354 7 112 44 189 127 267
120 111 255 151 505 150 235 -1 274 -11 587 -150 209 -92 242 -98 330 -57 73
34 113 78 158 175 46 100 63 179 58 283 -5 122 -33 180 -130 270 -89 83 -192
134 -350 174 -211 55 -365 73 -643 76 -137 2 -266 1 -285 -2z"/>
</g>
</svg>
