<svg version="1" xmlns="http://www.w3.org/2000/svg" width="561.333" height="561.333" viewBox="0 0 421.000000 421.000000"><path d="M318.6 162.5c-14 2.9-28.1 9-37.3 16.3-6.3 5.1-14.4 17-17.3 25.6-6 18.2-3.5 42.8 6 57.6 7.3 11.4 18.4 19.5 42.9 31.2 33.4 15.9 36.8 17.8 42.1 22.9 14.5 13.9 14.1 35.3-.9 44.8-6.9 4.4-14.2 6.2-25.1 6.2-15.6 0-24.6-3.6-38.1-15.2-10.8-9.2-15.8-11.6-21.1-10-10.8 3.3-18 19.6-13.4 30.6 4.7 11.1 24.1 24 43.8 28.9 17.1 4.3 39.6 4.5 55.8.6 26-6.3 45.6-25.1 50.5-48.5 2.2-10.4 2-29.4-.5-38.9-2.8-11-9.3-22.8-16.5-30.1-9.4-9.6-28.7-20.7-54.5-31.5-19.8-8.3-28.6-15.3-31-24.7-3.6-14.5 5.9-25.7 24.8-29.4 13.3-2.5 29.3.1 45.8 7.7 12.5 5.7 17.8 4.7 23.6-4.7 3.5-5.6 5.1-13.4 3.7-18.4-2.5-8.9-13.1-15.8-30.4-19.5-13-2.8-42.4-3.7-52.9-1.5zM120.7 163c-5.3 1.4-9.3 3.6-11.1 6.2-1.4 2-1.6 14.3-1.6 113.1v110.9l3.3 3.3c1.8 1.8 5.1 3.8 7.2 4.4 2.7.7 22.3 1.1 59.6 1.1 55.6 0 55.6 0 58.4-2.2 6.7-5.2 8.6-18.2 4-27.4-1.4-2.8-3.5-5.6-4.8-6.2-1.5-.9-14.3-1.3-43.7-1.5l-41.5-.2-.5-97.1c-.4-84.3-.7-97.3-2-98.9-3.9-4.7-18.6-7.7-27.3-5.5z"/></svg>